<svg xmlns="http://www.w3.org/2000/svg" xml:space="preserve" id="Capa_1" x="0" y="0" version="1.1" viewBox="0 0 1234.855 283.246"><style id="style1" type="text/css">.st37{fill:#a46f9b}.st38{fill:#a56f9b}</style><g id="g616" transform="translate(-394.353 -567.631)"><g id="g588" style="fill:#fff;fill-opacity:1" transform="translate(49.608 -53.528)"><g id="g587" style="fill:#fff;fill-opacity:1"><g id="g572" style="fill:#fff;fill-opacity:1"><path id="path571" d="m598.3 856.3-3 9.3h4.3v2.5h-12.5v-2.5h5.3l56-177.3-.3-.3h-5.8v-2.5h23.5v2.5h-4.3l56 177.5h5.8v2.5h-23.5v-2.5h4.3l-25-79.5c-40 4.5-69.8 38-80.8 70.3zM649.8 693 604 837.5c14.5-26 40.8-50 74.3-54z" class="st37" style="fill:#fff;fill-opacity:1"/><path id="path572" d="M724.9 869.6h-26.6V864h3.7l-24-76.3c-39.5 5.1-67.7 38.2-78.2 69.1l-2.3 7.2h3.7v5.6h-15.6V864h5.7l55.1-174.4h-5.5V684h26.6v5.6h-3.7l55 174.4h6.2v5.6zm-18.9-3.1h10.2l-.2-.5-56.5-179h-10.3l.8.8-.1.4 30.4 96.6zm-107.2-16.3-.5 1.7c.3-.9.7-1.7 1-2.6zm51-152-40.6 128.1c16.9-24.3 41.2-40.4 67-44.1z" class="st38" style="fill:#fff;fill-opacity:1"/></g><g id="g574" style="fill:#fff;fill-opacity:1"><path id="path573" d="M760.9 782.3c8-26.8 29.3-42 48.3-42 17.8 0 33.5 13.3 35.3 42.5 7.8-27 29.3-42.5 48.5-42.5 18.8 0 35.5 14.8 35.5 48v77.3h5v2.5H911v-2.5h5v-77.3c0-32-12.8-45.5-27.3-45.5-20 0-44 25.5-44 62.5v60.3h5v2.5h-22.5v-2.5h5v-77.3c0-32-12.8-45.5-27.3-45.5-20 0-44 25.5-44 62.5V868h-17.5v-2.5h5v-120h-5V743l17.5-3z" class="st37" style="fill:#fff;fill-opacity:1"/><path id="path574" d="M935 869.6h-25.6V864h5v-75.7c0-32.4-13.3-44-25.7-44-20 0-42.5 26.1-42.5 61V864h5v5.6h-25.6V864h5v-75.7c0-32.4-13.3-44-25.7-44-20 0-42.5 26.1-42.5 61v64.3h-20.6V864h5V747.1h-5v-5.4l20.6-3.5v35.3c10.4-23.8 30.7-34.8 46.7-34.8 15.2 0 32 9.8 36.1 36.8 10-25.2 31.1-36.8 47.7-36.8 10.3 0 19.5 4.3 26 12.1 7.3 8.7 11.1 21.7 11.1 37.5V864h5zm-17.5-3.1h9.4v-78.2c0-33.5-16.7-45.9-32.8-46.4 12.1 2.9 23.4 16.2 23.4 46.4zm-83.8 0h9.4v-61.2c0-11.5 2.3-22.5 6.6-32.2-1.5 3.2-2.8 6.5-3.8 10.2l-2.5 8.7-.5-9.1c-1.8-29.5-17.8-40.5-32.6-41 12.1 2.9 23.4 16.2 23.4 46.4zm-83.8 0h9.4v-61.2c0-9.5 1.6-18.7 4.6-27.1-.5 1.5-1.1 3-1.5 4.6l-3.1 10.2v-51.1l-12.2 2.1h2.8z" class="st38" style="fill:#fff;fill-opacity:1"/></g><g id="g576" style="fill:#fff;fill-opacity:1"><path id="path575" d="M998.9 870.5c-25.3 0-40.8-16.3-40.8-32.5 0-40.3 85.8-22.3 85.8-65 0-15-13-30-33-30-16.5 0-29.8 10.3-36.3 25h-11.5c8.5-16 25.8-27.5 48.8-27.5 27.3 0 44.3 16.3 44.3 32.5v92l5 .5v2.5h-17.5v-22c-9.5 16.8-27.3 24.5-44.8 24.5zm44.8-76.5c-23.8 14.8-72.8 12.3-72.8 44 0 15 11.3 30 30.3 30 18.8 0 40-14.5 42.5-44z" class="st37" style="fill:#fff;fill-opacity:1"/><path id="path576" d="M998.9 872.1c-26.5 0-42.3-17.3-42.3-34.1 0-21 21.9-27 43.1-32.8 22-6 42.7-11.7 42.7-32.2 0-13.7-12-28.4-31.5-28.4-15.2 0-28.2 9-34.8 24.1l-.4.9h-15.1l1.2-2.3c9.4-17.7 28.2-28.3 50.1-28.3 28.7 0 45.8 17.3 45.8 34.1v90.6l5 .5v5.5h-20.6v-18.3c-9.5 13-25.3 20.7-43.2 20.7zm-8.7-61c-16.7 5-30.5 11.4-30.5 26.9 0 14 12.4 28.5 33.5 30.7-15.1-3.6-23.9-17.3-23.9-30.7 0-14 8.9-21.6 20.9-26.9zm55 55.4h9.7-.3V773c0-13.5-12.6-27.4-34.1-30.4 15.6 4 24.9 17.6 24.9 30.4 0 14.1-8.6 21.9-20.4 27.2 6.6-2.1 12.8-4.4 17.8-7.5l2.4-1.5v32.9c-1.7 20-11.9 33.6-24.5 40.4 9.1-4 16.7-10.6 21.6-19.3l2.9-5.1zm-3.1-69.8c-7.9 4.3-18 7.1-27.7 9.8-21.5 6-41.9 11.6-41.9 31.5 0 13.8 10.1 28.4 28.7 28.4 18.5 0 38.6-14.6 41-42.5v-27.2zm-76.3-30.2h7.8c5.2-11.1 13.6-19 23.8-22.7-13.4 3.3-24.7 11.2-31.6 22.7z" class="st38" style="fill:#fff;fill-opacity:1"/></g><g id="g578" style="fill:#fff;fill-opacity:1"><path id="path577" d="M1094.7 745.5h-9.5V743h9.5v-45.5h-5V695l17.5-2.5V743h56.5v27.5h-3.5c0-15.3-8.8-25-22.5-25h-30.5v77c0 28.5 14.5 43.5 29.8 43.5 10.8 0 22-7.8 28.5-23.8h11.5c-8.5 17.3-25 25.8-41 25.8-21 0-41.3-15-41.3-45.5z" class="st37" style="fill:#fff;fill-opacity:1"/><path id="path578" d="M1135.9 869.6c-20.6 0-42.8-14.7-42.8-47.1V747h-9.5v-5.6h9.5V699h-5v-5.4l20.6-2.9v50.8h56.5v30.6h-6.6v-1.6c0-14.5-8-23.4-20.9-23.4h-29v75.5c0 28.8 14.6 42 28.2 42 11.2 0 21.3-8.5 27.1-22.8l.4-1h15.1l-1.1 2.2c-8.1 16.4-24.4 26.6-42.5 26.6zM1096.2 744v78.6c0 25.8 14.4 39.5 30.8 43-11.5-4.9-21.4-18.8-21.4-43V694.3l-11.5 1.6h2.1V744Zm70.3 99.8c-4.1 9.7-10.2 16.8-17.3 20.6 10.5-3.3 19.5-10.6 25.2-20.6zm-4.8-74.8h.4v-24.4h-18.6c10.9 2.3 17.7 11.3 18.2 24.4z" class="st38" style="fill:#fff;fill-opacity:1"/></g><g id="g580" style="fill:#fff;fill-opacity:1"><path id="path579" d="m1216.2 865 5 .5v2.5h-23v-2.5h5V746.8h-5v-2.5l18-3zm-7.2-172.3c5 0 9 3.8 9 8.8 0 5-4 9-9 9s-8.8-4-8.8-9 3.8-8.8 8.8-8.8z" class="st37" style="fill:#fff;fill-opacity:1"/><path id="path580" d="M1222.8 869.6h-26.1V864h5V748.3h-5v-5.4l21.1-3.5v124.2l5 .5zm-18-3.1h10.2-.3V743.1l-12.6 2.1h2.7zm4.2-154.4c-5.8 0-10.3-4.6-10.3-10.6 0-5.9 4.4-10.3 10.3-10.3s10.6 4.5 10.6 10.3c-.1 5.8-4.8 10.6-10.6 10.6zm0-17.8c-4.2 0-7.2 3-7.2 7.2s3.1 7.4 7.2 7.4c4.2 0 7.4-3.3 7.4-7.4 0-4.1-3.2-7.2-7.4-7.2z" class="st38" style="fill:#fff;fill-opacity:1"/></g><g id="g582" style="fill:#fff;fill-opacity:1"><path id="path581" d="M1295.2 740.5c22 0 37.5 11.5 46.5 27.5h-11.5c-7-14.8-18.8-25-35-25-21.3 0-31.8 15-31.8 30 0 42.8 80.8 24.8 80.8 65 0 16.3-15.5 32.5-47 32.5-24.3 0-41.5-11.5-51.5-27.5h11.5c8 14.8 21.3 25 40 25 23 0 34.3-15 34.3-30 0-41.8-80.8-24.3-80.8-65 0-16.2 14.8-32.5 44.5-32.5z" class="st37" style="fill:#fff;fill-opacity:1"/><path id="path582" d="M1297.2 872.1c-22.7 0-41.5-10-52.8-28.2l-1.5-2.4h15.2l.4.8c6 11 17.5 24.2 38.6 24.2 22.5 0 32.7-14.7 32.7-28.4 0-19.8-19.3-25.5-39.6-31.5-20.2-5.9-41.1-12.1-41.1-33.5 0-16.4 14.4-34.1 46.1-34.1 20.6 0 37.6 10.1 47.9 28.3l1.3 2.3h-15.2l-.4-.9c-7.4-15.6-19.3-24.1-33.6-24.1-20.7 0-30.2 14.7-30.2 28.4 0 20.5 19.5 26.2 40.2 32.2 20 5.8 40.6 11.8 40.6 32.8 0 16.4-15.2 34.1-48.6 34.1zm13.9-61.9c12.4 5.3 21.9 13 21.9 27.8 0 12.5-7.5 25.7-23.8 30.1 22.9-3.5 33.4-17.2 33.4-30.1.1-16.5-14.5-22.6-31.5-27.8zm-62.5 34.4c8.3 11.9 20.1 19.8 34.3 22.9-13.4-4.2-21.7-14.1-26.6-22.9zm35.7-101.7c-21.9 3.4-32 17.2-32 30.1 0 16.6 14.4 23 31.3 28.3-12.3-5.3-21.7-13.2-21.7-28.3 0-12.5 7.1-25.8 22.4-30.1zm46.9 23.6h7.8c-7.7-12.4-19-20.4-32.4-23.2 10.2 3.2 18.7 11.2 24.6 23.2z" class="st38" style="fill:#fff;fill-opacity:1"/></g><g id="g584" style="fill:#fff;fill-opacity:1"><path id="path583" d="M1375.5 745.5h-9.5V743h9.5v-45.5h-5V695l17.5-2.5V743h56.5v27.5h-3.5c0-15.3-8.8-25-22.5-25H1388v77c0 28.5 14.5 43.5 29.8 43.5 10.8 0 22-7.8 28.5-23.8h11.5c-8.5 17.3-25 25.8-41 25.8-21 0-41.3-15-41.3-45.5z" class="st37" style="fill:#fff;fill-opacity:1"/><path id="path584" d="M1416.8 869.6c-20.6 0-42.8-14.7-42.8-47.1V747h-9.5v-5.6h9.5V699h-5v-5.4l20.6-2.9v50.8h56.5v30.6h-6.6v-1.6c0-14.5-8-23.4-20.9-23.4h-29v75.5c0 28.8 14.6 42 28.2 42 11.2 0 21.3-8.5 27.1-22.8l.4-1h15.1l-1.1 2.2c-8.2 16.4-24.5 26.6-42.5 26.6zM1377 744v78.6c0 25.8 14.4 39.5 30.8 43-11.5-4.9-21.4-18.8-21.4-43V694.3l-11.5 1.6h2.1V744Zm70.3 99.8c-4.1 9.7-10.2 16.8-17.3 20.6 10.5-3.3 19.5-10.6 25.2-20.6zm-4.8-74.8h.4v-24.4h-18.6c10.9 2.3 17.7 11.3 18.2 24.4z" class="st38" style="fill:#fff;fill-opacity:1"/></g><g id="g586" style="fill:#fff;fill-opacity:1"><path id="path585" d="M1515.8 870.5c-25.3 0-40.8-16.3-40.8-32.5 0-40.3 85.8-22.3 85.8-65 0-15-13-30-33-30-16.5 0-29.8 10.3-36.3 25H1480c8.5-16 25.8-27.5 48.8-27.5 27.3 0 44.3 16.3 44.3 32.5v92l5 .5v2.5h-17.5v-22c-9.6 16.8-27.3 24.5-44.8 24.5zm44.7-76.5c-23.8 14.8-72.8 12.3-72.8 44 0 15 11.3 30 30.3 30 18.8 0 40-14.5 42.5-44z" class="st37" style="fill:#fff;fill-opacity:1"/><path id="path586" d="M1515.8 872.1c-26.5 0-42.3-17.3-42.3-34.1 0-21 21.9-27 43.1-32.8 22-6 42.7-11.7 42.7-32.2 0-13.7-12-28.4-31.5-28.4-15.2 0-28.2 9-34.8 24.1l-.4.9h-15.1l1.2-2.3c9.4-17.7 28.2-28.3 50.1-28.3 28.7 0 45.8 17.3 45.8 34.1v90.6l5 .5v5.5H1559v-18.3c-9.5 13-25.3 20.7-43.2 20.7zm-8.7-61c-16.7 5-30.5 11.4-30.5 26.9 0 14 12.4 28.5 33.5 30.7-15.1-3.6-23.9-17.3-23.9-30.7 0-14 8.9-21.6 20.9-26.9zm55 55.4h9.7-.3V773c0-13.5-12.6-27.4-34.1-30.4 15.6 4 24.9 17.6 24.9 30.4 0 14.1-8.6 21.9-20.4 27.2 6.6-2.1 12.8-4.4 17.8-7.5l2.4-1.5v32.9c-1.7 20-11.9 33.6-24.5 40.4 9.1-4 16.7-10.6 21.6-19.3l2.9-5.1zm-3.1-69.8c-7.9 4.3-18 7.1-27.7 9.8-21.5 6-41.9 11.6-41.9 31.5 0 13.8 10.1 28.4 28.7 28.4 18.5 0 38.6-14.6 41-42.5v-27.2zm-76.3-30.2h7.8c5.2-11.1 13.6-19 23.8-22.7-13.5 3.3-24.7 11.2-31.6 22.7z" class="st38" style="fill:#fff;fill-opacity:1"/></g></g></g><g id="g615" style="fill:#fff;fill-opacity:1" transform="matrix(.7475 0 0 .7475 147.535 200.998)"><path id="path588" d="M473.5 538.6c70 1.2 127.2 53.1 137.5 120 1.5-7.8 2.4-15.8 2.5-24 1.4-78.2-60.9-142.8-139.2-144.1-78.2-1.4-142.8 60.9-144.1 139.2-.1 8.2.5 16.2 1.7 24.1 12.6-66.6 71.6-116.4 141.6-115.2z" style="fill:#fff;fill-opacity:1"/><g id="g614" style="fill:#fff;fill-opacity:1"><path id="path614" d="m532.8 703.6 31.4-81.7c-68.7-11.9-70.8-44.3-70.8-44.3h-41.2c-10 35.8-70.5 43.9-70.5 43.9l31.4 82.2c6.4 16.6 4.1 35.2-5.7 50.1-30.7 46.7-28.8 94.3-27 110.1.3 3.1 3 5.5 6.1 5.5H553c24.2-24.5 3.8-83.7-15.5-114.9-9.5-15.3-11.2-34.1-4.7-50.9zM429 665.4c.7-8.3 4.1-15.5 9.9-21.5.3-.3.6-.5 1-.8 2.1-1.7 4.1-3.7 6.4-5 13.6-7.5 27-7.1 39.9 1.6 9.1 6.2 14 15 15.4 25.8.5 3.8.4 7.7-.6 11.5-1.1 4.4 0 8.2 2.1 12 1.8 3.2 4.5 5.5 7.6 7.4.1.1.2 0 .7 0-3.6-2.6-6.1-5.7-7.1-9.8 4.5-1.1 9.6.5 12 5.6 1.3 2.7 2.8 5.2 4.3 8.1-1.6 0-3.3.1-5.1 0-6.1-.4-11-2.8-13.6-8.6-1-2.1-1.8-4.2-2.6-6.3-.1-.3-.3-.5-.6-1.1-.5 1.4-1.1 2.4-1.3 3.6-1.4 6-4.1 11.2-8.7 15.3-4.3 3.8-9.4 5.9-15 6.9-4.3.8-8.7.8-13.4.5 4.5-5 6.5-11 9.1-16.7 3.1-6.7 8.5-10.1 15.8-10.6 1.9-.1 3.8-.2 6-.3-2.1 8.3-6.2 15-13 19.9 3.8-1.9 7.1-4.5 9.9-7.6 6.4-7.3 9.5-15.7 8.8-25.4-1.4-18.6-16.9-31.5-34.2-30.6-20.1 1-34.9 19.2-31.7 40.7-1.9-5-2.4-9.8-2-14.6zm98.7 134.3c-.8 9.7-4.8 18-11.6 25-.3.3-.7.6-1.1.9-2.5 2-4.7 4.3-7.5 5.8-15.8 8.7-31.4 8.3-46.4-1.9-10.6-7.2-16.4-17.5-18-30.1-.6-4.5-.4-9 .7-13.4 1.3-5.1 0-9.6-2.4-14-2.1-3.7-5.2-6.5-8.8-8.6-.1-.1-.3 0-.8 0 4.2 3.1 7.1 6.6 8.3 11.4-5.3 1.3-11.1-.6-14-6.5-1.5-3.1-3.2-6.1-5.1-9.4 1.9 0 3.9-.1 5.9 0 7.1.4 12.8 3.3 15.9 10 1.1 2.4 2 4.9 3.1 7.4.1.3.3.6.7 1.3.6-1.6 1.2-2.8 1.6-4.1 1.6-6.9 4.8-13 10.1-17.8 5-4.4 11-6.9 17.5-8 5.1-.9 10.2-.9 15.6-.5-5.2 5.8-7.6 12.8-10.6 19.4-3.6 7.8-9.9 11.7-18.4 12.3-2.2.2-4.4.2-7 .3 2.5-9.7 7.2-17.4 15.1-23.2-4.5 2.2-8.3 5.2-11.5 8.9-7.4 8.5-11.1 18.3-10.2 29.6 1.7 21.6 19.7 36.6 39.8 35.6 23.4-1.2 40.6-22.3 36.9-47.4 2.1 5.9 2.7 11.4 2.2 17z" class="st37" style="fill:#fff;fill-opacity:1"/></g></g></g></svg>